# xmcd
#
# Track frame offsets: 
#        150
#        17059
#        37627
#        55940
#        91110
#        116983
#        140242
#        160344
#        188148
#        208810
#        231550
#
# Disc length: 3363 seconds
#
# Revision: 0
# Processed by: cddbd v1.5.1PL0 Copyright (c) Steve Scherf et al.
# Submitted via: ExactAudioCopy v0.95a5
#
DISCID=9a0d210b
DTITLE=Pure In Heart - Enter In
DYEAR=2005
DGENRE=Worship
TTITLE0=Beautiful
TTITLE1=Whom Have I?
TTITLE2=Everything Amazing
TTITLE3=Fear the Lord (with Lou Engle)
TTITLE4=Psalm (The Heavens Are Yours)
TTITLE5=Revelation Song
TTITLE6=Mercy
TTITLE7=Wholly Yours
TTITLE8=Your Love Is Everlasting
TTITLE9=My Hope Is From You
TTITLE10=Lovesick
EXTD=
EXTT0=
EXTT1=
EXTT2=
EXTT3=
EXTT4=
EXTT5=
EXTT6=
EXTT7=
EXTT8=
EXTT9=
EXTT10=
PLAYORDER=
